<svg xmlns="http://www.w3.org/2000/svg" viewBox="0 0 24 24" fill="none" stroke="currentColor" stroke-width="2" stroke-linecap="round" stroke-linejoin="round">
  <path d="M4 17v2a1 1 0 0 0 1 1h2"/>
  <path d="M9 20h6"/>
  <path d="M17 17v3a1 1 0 0 0 1 1h2"/>
  <circle cx="5" cy="17" r="2"/>
  <circle cx="19" cy="17" r="2"/>
  <path d="M12 17V9"/>
  <path d="M5 9h14"/>
  <path d="M5 9V7a2 2 0 0 1 2-2h2"/>
  <path d="M19 9V7a2 2 0 0 0-2-2h-3"/>
  <path d="M9 5l3-3 3 3"/>
  <path d="M12 2v3"/>
  <rect x="8" y="9" width="8" height="4" rx="1"/>
  <path d="M3 13h4l2 4"/>
  <path d="M21 13h-4l-2 4"/>
</svg>
